<svg xmlns="http://www.w3.org/2000/svg" viewBox="0 0 100 100">
  <rect width="100" height="100" rx="22" fill="#131722"/>
  <g transform="translate(51,53) scale(0.13) rotate(-4)" fill="#EFA43E">
    <path d="M 10,-218 C 70,-215 92,-175 92,-130 C 92,-60 55,-10 38,30 C 28,70 58,110 62,160 C 64,205 36,232 -2,232 C -42,232 -58,196 -58,150 C -58,85 -88,-25 -92,-105 C -94,-175 -60,-218 10,-218 Z"/>
    <ellipse cx="72" cy="-295" rx="40" ry="48"/>
    <ellipse cx="14" cy="-322" rx="25" ry="30"/>
    <ellipse cx="-38" cy="-308" rx="21" ry="25"/>
    <ellipse cx="-80" cy="-277" rx="18" ry="21"/>
    <ellipse cx="-110" cy="-238" rx="15" ry="17"/>
  </g>
</svg>
